<svg width="49" height="49" viewBox="0 0 49 49" fill="none" xmlns="http://www.w3.org/2000/svg">
<rect width="48.743" height="48.743" rx="24.3715" fill="#0D1B39"/>
<path d="M34.1146 24.3714C34.1146 23.6023 33.4911 22.9788 32.722 22.9788H25.7587V16.0155C25.7587 15.2463 25.1352 14.6228 24.366 14.6228C23.5969 14.6228 22.9734 15.2463 22.9734 16.0155V22.9788H16.0101C15.2409 22.9788 14.6174 23.6023 14.6174 24.3714C14.6174 25.1406 15.2409 25.7641 16.0101 25.7641H22.9734V32.7274C22.9734 33.4965 23.5969 34.12 24.366 34.12C25.1352 34.12 25.7587 33.4965 25.7587 32.7274V25.7641H32.722C33.4911 25.7641 34.1146 25.1406 34.1146 24.3714Z" fill="white"/>
</svg>
