<svg width="34" height="34" viewBox="0 0 34 34" fill="none" xmlns="http://www.w3.org/2000/svg">
<path d="M17.007 2.83331C20.8036 2.83331 23.9249 5.81668 24.0833 9.59694H24.0463C24.0508 9.70682 24.0296 9.81624 23.9846 9.91664H24.2058C25.9299 9.91664 27.7353 11.1116 28.4592 13.9964L28.5378 14.3367L29.6271 23.1125C30.411 28.7098 27.3487 31.0636 23.1713 31.1633L22.8912 31.1666H11.1471C6.90168 31.1666 3.63027 29.6196 4.34956 23.4933L4.39861 23.1125L5.50041 14.3367C6.0437 11.2302 7.86761 10.0048 9.625 9.92127L9.81993 9.91664H9.93067C9.912 9.81089 9.912 9.70269 9.93067 9.59694C10.0891 5.81668 13.2104 2.83331 17.007 2.83331ZM12.8874 14.6331C12.1959 14.6331 11.6354 15.2101 11.6354 15.9218C11.6354 16.6335 12.1959 17.2105 12.8874 17.2105C13.5789 17.2105 14.1394 16.6335 14.1394 15.9218L14.1297 15.7602C14.0524 15.1247 13.5257 14.6331 12.8874 14.6331ZM21.0882 14.6331C20.3968 14.6331 19.8362 15.2101 19.8362 15.9218C19.8362 16.6335 20.3968 17.2105 21.0882 17.2105C21.7797 17.2105 22.3403 16.6335 22.3403 15.9218C22.3403 15.2101 21.7797 14.6331 21.0882 14.6331ZM16.9515 4.67835C14.2257 4.67835 12.0159 6.88048 12.0159 9.59694C12.0346 9.70269 12.0346 9.81089 12.0159 9.91664H21.9487C21.9093 9.81456 21.8884 9.70631 21.887 9.59694C21.887 6.88048 19.6773 4.67835 16.9515 4.67835Z" fill="white"/>
</svg>
